<svg width="21" height="21" viewBox="0 0 21 21" fill="none" xmlns="http://www.w3.org/2000/svg">
<path d="M7.1543 14H5.94727L5.28516 11.7676H2.05664L1.41797 14H0.275391L2.95312 5.26953H4.54102L7.1543 14ZM5.03906 10.9238L4.30078 8.30469L3.69141 6.16016C3.46484 6.96875 3.26562 7.66406 3.09375 8.24609L2.30859 10.9238H5.03906ZM14.2969 8.11719C14.2969 8.47266 14.2773 8.78906 14.2383 9.06641C14.1992 9.34375 14.1465 9.58203 14.0801 9.78125C14.0176 9.97656 13.9297 10.1445 13.8164 10.2852C13.707 10.4258 13.5898 10.5391 13.4648 10.625C13.3438 10.7109 13.1953 10.7793 13.0195 10.8301C12.8477 10.877 12.6758 10.9082 12.5039 10.9238C12.3359 10.9395 12.1387 10.9473 11.9121 10.9473H9.58594V14H8.40234V5.26953H11.5664C11.9297 5.26953 12.2363 5.28516 12.4863 5.31641C12.7402 5.34375 12.9746 5.39648 13.1895 5.47461C13.4043 5.55273 13.5762 5.6582 13.7051 5.79102C13.834 5.92383 13.9453 6.09766 14.0391 6.3125C14.1328 6.52734 14.1973 6.78125 14.2324 7.07422C14.2715 7.36328 14.293 7.71094 14.2969 8.11719ZM13.1133 8.05273C13.1094 7.77148 13.1016 7.54297 13.0898 7.36719C13.0781 7.19141 13.0547 7.02539 13.0195 6.86914C12.9883 6.71289 12.9453 6.59375 12.8906 6.51172C12.8398 6.42969 12.7676 6.35938 12.6738 6.30078C12.584 6.23828 12.4766 6.19727 12.3516 6.17773C12.2305 6.1582 12.0781 6.14844 11.8945 6.14844H9.58594V10.0625H11.6543C11.959 10.0625 12.207 10.0371 12.3984 9.98633C12.5898 9.93555 12.7383 9.85156 12.8438 9.73438C12.9531 9.61328 13.0254 9.47266 13.0605 9.3125C13.0996 9.15234 13.1191 8.94531 13.1191 8.69141C13.1191 8.62891 13.1172 8.52734 13.1133 8.38672C13.1133 8.24609 13.1133 8.13477 13.1133 8.05273Z"/>
<path d="M17.0833 16.4167H15.4166V18.0833H14.5833V16.4167H12.9166V15.5833H14.5833V13.9167H15.4166V15.5833H17.0833V16.4167ZM15 11.8333C14.4528 11.8333 13.911 11.9411 13.4055 12.1505C12.8999 12.3599 12.4406 12.6668 12.0537 13.0537C11.2723 13.8351 10.8333 14.8949 10.8333 16C10.8333 17.1051 11.2723 18.1649 12.0537 18.9463C12.4406 19.3332 12.8999 19.6401 13.4055 19.8495C13.911 20.0589 14.4528 20.1667 15 20.1667C16.105 20.1667 17.1649 19.7277 17.9463 18.9463C18.7277 18.1649 19.1666 17.1051 19.1666 16C19.1666 15.4528 19.0589 14.911 18.8495 14.4055C18.6401 13.9 18.3332 13.4406 17.9463 13.0537C17.5593 12.6668 17.1 12.3599 16.5945 12.1505C16.089 11.9411 15.5472 11.8333 15 11.8333Z"/>
</svg>
